{
    "asset" : {
        "generator" : "Khronos Blender glTF 2.0 I/O",
        "version" : "2.0"
    },
    "scene" : 0,
    "scenes" : [
        {
            "name" : "Scene",
            "nodes" : [
                0
            ]
        }
    ],
    "nodes" : [
        {
            "mesh" : 0,
            "name" : "1 "
        }
    ],
    "meshes" : [
        {
            "name" : "1 ",
            "primitives" : [
                {
                    "attributes" : {
                        "POSITION" : 0,
                        "NORMAL" : 1
                    },
                    "indices" : 2
                }
            ]
        }
    ],
    "accessors" : [
        {
            "bufferView" : 0,
            "componentType" : 5126,
            "count" : 1255,
            "max" : [
                2.9317164421081543,
                4.799999713897705,
                4.489342212677002
            ],
            "min" : [
                -3.1982836723327637,
                0,
                -4.385071277618408
            ],
            "type" : "VEC3"
        },
        {
            "bufferView" : 1,
            "componentType" : 5126,
            "count" : 1255,
            "type" : "VEC3"
        },
        {
            "bufferView" : 2,
            "componentType" : 5123,
            "count" : 1632,
            "type" : "SCALAR"
        }
    ],
    "bufferViews" : [
        {
            "buffer" : 0,
            "byteLength" : 15060,
            "byteOffset" : 0
        },
        {
            "buffer" : 0,
            "byteLength" : 15060,
            "byteOffset" : 15060
        },
        {
            "buffer" : 0,
            "byteLength" : 3264,
            "byteOffset" : 30120
        }
    ],
    "buffers" : [
        {
            "byteLength" : 33384,
            "uri" : "data:application/octet-stream;base64,"
        }
    ]
}
